<svg data-v-423bf9ae="" xmlns="http://www.w3.org/2000/svg" viewBox="0 0 323.2580882153376 60" class="font"><!----><!----><!----><g data-v-423bf9ae="" id="5ec333be-57a6-4ef2-835e-6f73250bcf49" fill="white" transform="matrix(5.888125304749934,0,0,5.888125304749934,-2.8262926809225917,-22.257109748815886)"><path d="M0.48 10.00C0.48 12.60 2.13 13.97 4.54 13.97C7.07 13.97 8.43 12.67 8.43 10.33L8.43 8.71L4.20 8.71L4.20 10.33L6.58 10.33L6.58 10.40C6.58 11.58 6.01 12.29 4.54 12.29C3.09 12.29 2.32 11.40 2.32 10.05L2.32 7.70C2.32 6.47 3.15 5.46 4.54 5.46C5.88 5.46 6.58 6.24 6.58 7.42L6.58 7.53L8.43 7.53L8.43 7.42C8.43 5.12 7.01 3.78 4.54 3.78C2.06 3.78 0.48 5.32 0.48 7.76ZM9.32 10.25C9.32 12.40 10.82 13.97 12.89 13.97C14.76 13.97 15.57 12.99 16.04 12.26L14.53 11.40C14.29 11.89 13.85 12.43 12.87 12.43C11.86 12.43 11.20 11.72 11.16 10.82L16.30 10.82L16.30 10.14C16.30 8.05 14.88 6.64 12.87 6.64C10.82 6.64 9.32 8.15 9.32 10.25ZM11.17 9.59C11.28 8.76 11.86 8.18 12.85 8.18C13.76 8.18 14.38 8.74 14.48 9.59ZM17.14 10.30C17.14 12.49 18.73 13.97 20.78 13.97C22.82 13.97 24.42 12.49 24.42 10.30C24.42 8.12 22.82 6.64 20.78 6.64C18.73 6.64 17.14 8.12 17.14 10.30ZM18.90 10.30C18.90 9.07 19.66 8.26 20.78 8.26C21.90 8.26 22.65 9.07 22.65 10.30C22.65 11.54 21.90 12.35 20.78 12.35C19.66 12.35 18.90 11.54 18.90 10.30ZM25.31 7.76L25.31 10.00C25.31 12.60 26.96 13.97 29.37 13.97C31.96 13.97 33.24 12.59 33.24 10.42L33.24 10.08L31.39 10.08L31.39 10.42C31.39 11.52 30.84 12.29 29.37 12.29C27.93 12.29 27.16 11.40 27.16 10.05L27.16 7.70C27.16 6.47 27.99 5.46 29.37 5.46C30.72 5.46 31.39 6.22 31.39 7.34L31.39 7.67L33.24 7.67L33.24 7.34C33.24 5.15 31.85 3.78 29.37 3.78C26.89 3.78 25.31 5.32 25.31 7.76ZM34.52 3.98L34.52 13.78L36.29 13.78L36.29 10.19C36.29 8.96 36.89 8.26 38.02 8.26C39.03 8.26 39.59 8.83 39.59 9.80L39.59 13.78L41.36 13.78L41.36 9.63C41.36 7.83 40.19 6.72 38.65 6.72C37.38 6.72 36.74 7.31 36.46 7.95L36.29 7.95L36.29 3.98ZM42.62 8.43L44.04 9.35C44.48 8.62 45.05 8.15 45.98 8.15C46.93 8.15 47.43 8.67 47.43 9.32L47.43 9.49L44.65 9.80C43.36 9.94 42.48 10.70 42.48 11.80C42.48 13.13 43.51 13.97 45.08 13.97C46.58 13.97 47.10 13.24 47.26 12.94L47.46 12.94L47.46 13.78L49.20 13.78L49.20 9.34C49.20 7.71 47.96 6.64 46.07 6.64C44.38 6.64 43.44 7.39 42.62 8.43ZM44.32 11.70C44.32 11.30 44.65 11.06 45.30 10.98L47.43 10.72L47.43 10.84C47.43 11.79 46.75 12.52 45.51 12.52C44.73 12.52 44.32 12.18 44.32 11.70ZM49.95 6.83L49.95 8.37L51.72 8.37L51.72 12.43C51.72 13.22 52.30 13.78 53.09 13.78L54.99 13.78L54.99 12.24L53.87 12.24C53.62 12.24 53.48 12.10 53.48 11.82L53.48 8.37L55.38 8.37L55.38 6.83L53.48 6.83L53.48 4.68L51.72 4.68L51.72 6.83Z"></path></g><!----><!----></svg>